<svg xmlns="http://www.w3.org/2000/svg" viewBox="0 0 850.4 850.4"><style>circle{fill:#f9f9f9;}@media (prefers-color-scheme: dark){circle{fill:#2f2725;}}</style><circle cx="425.2" cy="425.2" r="425.2"/><path d="M551.9,378.45H490.39A15.91,15.91,0,0,1,475.49,357L542.64,176.6a15.88,15.88,0,0,0-14.88-21.44H336A15.88,15.88,0,0,0,320.22,169L282.71,461a15.89,15.89,0,0,0,13.74,17.77h0a15.07,15.07,0,0,0,2,.13h56.95a15.89,15.89,0,0,1,15.92,15.86h0a17,17,0,0,1-.19,2.46l-8.75,56.25L343.25,676.85c-2.6,16.76,19.35,25.38,28.87,11.34l91.21-134.68L565.06,403.24a15.88,15.88,0,0,0-13.16-24.79Z" transform="translate(0 0)" style="fill:#f7f34e"/></svg>